HIERARCHY
ROOT joint_Root
{
	OFFSET 0.0 0.0 0.0
	CHANNELS 6 Xposition Yposition Zposition Zrotation Xrotation Yrotation 
	JOINT Hips
	{
		OFFSET 4.5925 91.4895 -427.239
		CHANNELS 6 Xposition Yposition Zposition Zrotation Xrotation Yrotation 
		JOINT Spine
		{
			OFFSET 15.7357 0.0 0.0
			CHANNELS 6 Xposition Yposition Zposition Zrotation Xrotation Yrotation 
			JOINT Chest
			{
				OFFSET 8.98455 -0.406207 0.0
				CHANNELS 6 Xposition Yposition Zposition Zrotation Xrotation Yrotation 
				JOINT Neck
				{
					OFFSET 16.3773 0.0 0.0
					CHANNELS 6 Xposition Yposition Zposition Zrotation Xrotation Yrotation 
					JOINT Head
					{
						OFFSET 6.45672 0.0 0.0
						CHANNELS 6 Xposition Yposition Zposition Zrotation Xrotation Yrotation 
						End Site
						{
							OFFSET 0.0 0.0 0.0
						}
					}
				}
				JOINT Shoulder_L
				{
					OFFSET 12.9942 -0.242716 4.98039
					CHANNELS 6 Xposition Yposition Zposition Zrotation Xrotation Yrotation 
					JOINT UpperArm_L
					{
						OFFSET 5.34809 0.0 0.0
						CHANNELS 6 Xposition Yposition Zposition Zrotation Xrotation Yrotation 
						JOINT LowerArm_L
						{
							OFFSET 24.3286 1.87007e-05 0.0
							CHANNELS 6 Xposition Yposition Zposition Zrotation Xrotation Yrotation 
							JOINT Hand_L
							{
								OFFSET 22.2916 0.0 0.0
								CHANNELS 6 Xposition Yposition Zposition Zrotation Xrotation Yrotation 
								End Site
								{
									OFFSET 0.0 0.0 0.0
								}
							}
						}
					}
				}
				JOINT Shoulder_R
				{
					OFFSET 12.9945 -0.242716 -4.98039
					CHANNELS 6 Xposition Yposition Zposition Zrotation Xrotation Yrotation 
					JOINT UpperArm_R
					{
						OFFSET -5.34813 0.0 0.0
						CHANNELS 6 Xposition Yposition Zposition Zrotation Xrotation Yrotation 
						JOINT LowerArm_R
						{
							OFFSET -24.3289 0.000322201 0.0
							CHANNELS 6 Xposition Yposition Zposition Zrotation Xrotation Yrotation 
							JOINT Hand_R
							{
								OFFSET -22.2915 -0.000108084 0.0
								CHANNELS 6 Xposition Yposition Zposition Zrotation Xrotation Yrotation 
								End Site
								{
									OFFSET 0.0 0.0 0.0
								}
							}
						}
					}
				}
			}
		}
		JOINT UpperLeg_L
		{
			OFFSET -2.19248 -6.46944 0.0
			CHANNELS 6 Xposition Yposition Zposition Zrotation Xrotation Yrotation 
			JOINT LowerLeg_L
			{
				OFFSET 39.0811 0.0 -1.23785e-05
				CHANNELS 6 Xposition Yposition Zposition Zrotation Xrotation Yrotation 
				JOINT Foot_L
				{
					OFFSET 40.9854 0.0 -1.26872e-05
					CHANNELS 6 Xposition Yposition Zposition Zrotation Xrotation Yrotation 
					JOINT Toes_L
					{
						OFFSET 11.7543 0.0 0.0
						CHANNELS 6 Xposition Yposition Zposition Zrotation Xrotation Yrotation 
						End Site
						{
							OFFSET 0.0 0.0 0.0
						}
					}
				}
			}
		}
		JOINT UpperLeg_R
		{
			OFFSET -2.19251 6.46944 0.0
			CHANNELS 6 Xposition Yposition Zposition Zrotation Xrotation Yrotation 
			JOINT LowerLeg_R
			{
				OFFSET -39.0811 -0.00228153 -0.0401928
				CHANNELS 6 Xposition Yposition Zposition Zrotation Xrotation Yrotation 
				JOINT Foot_R
				{
					OFFSET -40.9854 0.0 0.0
					CHANNELS 6 Xposition Yposition Zposition Zrotation Xrotation Yrotation 
					JOINT Toes_R
					{
						OFFSET -11.7543 0.0 0.0
						CHANNELS 6 Xposition Yposition Zposition Zrotation Xrotation Yrotation 
						End Site
						{
							OFFSET 0.0 0.0 0.0
						}
					}
				}
			}
		}
	}
}
MOTION
Frames:	6
Frame Time:	0.0333333
0.000000 0.000000 0.000000 0.000000 0.000000 -0.000000 -2.496840 90.634600 -4.207100 88.693900 0.421945 11.672600 15.735700 0.000005 -0.000001 87.849600 76.038300 -87.927900 8.984550 -0.406207 -0.000000 20.139300 -1.032430 0.026285 16.377300 -0.000001 -0.000001 5.670970 -3.780660 1.961060 6.456720 -0.000001 -0.000000 -10.589200 -3.378760 1.541170 12.994200 -0.242716 4.980390 -91.081800 6.325680 -80.274500 5.348090 -0.000007 -0.000001 -56.638700 35.014700 -30.190600 24.328600 0.000019 0.000005 10.165900 22.838600 -24.796200 22.291600 -0.000001 0.000005 10.628700 5.251340 1.397380 12.994500 -0.242716 -4.980390 89.107600 10.087800 -84.918300 -5.348130 -0.000001 -0.000004 -61.469600 27.436700 -25.221800 -24.328900 0.000322 -0.000009 3.654290 7.726380 -25.416500 -22.291500 -0.000108 -0.000004 19.279400 5.371390 -2.029520 -2.192480 -6.469440 -0.000000 -172.233000 -12.512000 -3.329820 39.081100 -0.000007 -0.000012 -0.170513 0.262136 33.043200 40.985400 -0.000006 -0.000013 -0.938948 6.175570 -67.503200 11.754300 -0.000000 0.000003 -0.000163 -0.001557 -16.636600 -2.192510 6.469440 -0.000001 174.769000 25.901100 179.670000 -39.081100 -0.002282 -0.040193 -0.200068 0.327243 31.859200 -40.985400 0.000008 0.000006 5.008160 14.074100 -69.404200 -11.754300 -0.000006 -0.000006 -0.002611 -0.036122 -18.042000
0.000000 0.000000 0.000000 0.000000 0.000000 -0.000000 -2.490140 90.636000 -4.217200 88.685300 0.393529 11.683700 15.735700 0.000005 -0.000001 87.824800 76.033900 -87.919800 8.984550 -0.406207 -0.000000 20.147600 -1.046320 -0.004552 16.377300 -0.000001 -0.000001 5.736020 -3.770960 1.923900 6.456720 -0.000001 -0.000000 -10.595800 -3.366990 1.531590 12.994200 -0.242716 4.980390 -91.074300 6.283160 -80.277500 5.348090 -0.000007 -0.000001 -56.669700 35.010400 -30.188000 24.328600 0.000019 0.000005 10.131900 22.755600 -24.796600 22.291600 -0.000001 0.000005 10.610500 5.250750 1.412840 12.994500 -0.242716 -4.980390 89.099300 10.080700 -84.867500 -5.348130 -0.000001 -0.000004 -61.666100 26.907100 -24.984300 -24.328900 0.000322 -0.000009 3.730430 7.451880 -26.697100 -22.291500 -0.000108 -0.000004 19.585900 5.377840 -2.230480 -2.192480 -6.469440 -0.000000 -172.226000 -12.517600 -3.320410 39.081100 -0.000007 -0.000012 -0.169730 0.260937 33.042800 40.985400 -0.000006 -0.000013 -0.937358 6.163880 -67.500300 11.754300 -0.000000 0.000003 -0.000154 -0.001486 -16.634000 -2.192510 6.469440 -0.000001 174.779000 25.876000 179.676000 -39.081100 -0.002282 -0.040193 -0.200183 0.327558 31.849100 -40.985400 0.000008 0.000006 5.007590 14.081500 -69.390200 -11.754300 -0.000006 -0.000006 -0.002462 -0.034356 -17.970200
0.000000 0.000000 0.000000 0.000000 0.000000 -0.000000 -2.483760 90.631500 -4.233930 88.674500 0.341272 11.691800 15.735700 0.000005 -0.000001 87.792500 76.030400 -87.911900 8.984550 -0.406207 -0.000000 20.153700 -1.064620 -0.050457 16.377300 -0.000001 -0.000001 5.835860 -3.732110 1.837220 6.456720 -0.000001 -0.000000 -10.596700 -3.361280 1.590140 12.994200 -0.242716 4.980390 -91.063900 6.219160 -80.272700 5.348090 -0.000007 -0.000001 -56.737800 34.953000 -30.147300 24.328600 0.000019 0.000005 10.181900 22.826600 -24.842100 22.291600 -0.000001 0.000005 10.570800 5.249900 1.435230 12.994500 -0.242716 -4.980390 89.091000 10.082300 -84.821400 -5.348130 -0.000001 -0.000004 -61.834200 26.308600 -24.774300 -24.328900 0.000322 -0.000009 3.856230 7.171770 -28.372800 -22.291500 -0.000108 -0.000004 19.778800 5.383380 -2.404830 -2.192480 -6.469440 -0.000000 -172.215000 -12.539800 -3.325190 39.081100 -0.000007 -0.000012 -0.170424 0.261686 33.074700 40.985400 -0.000006 -0.000013 -0.938449 6.127440 -67.515800 11.754300 -0.000000 0.000003 -0.000163 -0.001560 -16.636700 -2.192510 6.469440 -0.000001 174.784000 25.857600 179.659000 -39.081100 -0.002282 -0.040193 -0.200891 0.328422 31.870600 -40.985400 0.000008 0.000006 5.013050 14.116200 -69.387900 -11.754300 -0.000006 -0.000006 -0.002574 -0.035681 -18.024100
0.000000 0.000000 0.000000 0.000000 0.000000 -0.000000 -2.473470 90.634200 -4.242880 88.682700 0.308727 11.691200 15.735700 0.000005 -0.000001 87.738700 76.025900 -87.883700 8.984550 -0.406207 -0.000000 20.161500 -1.093310 -0.096634 16.377300 -0.000001 -0.000001 5.933920 -3.703040 1.779490 6.456720 -0.000001 -0.000000 -10.610100 -3.357240 1.536720 12.994200 -0.242716 4.980390 -91.054300 6.175130 -80.291600 5.348090 -0.000007 -0.000001 -56.759600 34.918400 -30.153100 24.328600 0.000019 0.000005 10.154700 22.774600 -24.829600 22.291600 -0.000001 0.000005 10.557500 5.249900 1.435300 12.994500 -0.242716 -4.980390 89.080000 10.062200 -84.748900 -5.348130 -0.000001 -0.000004 -61.958500 25.638600 -24.598600 -24.328900 0.000322 -0.000009 4.104380 7.015190 -30.442600 -22.291500 -0.000108 -0.000004 20.092200 5.388130 -2.555030 -2.192480 -6.469440 -0.000000 -172.223000 -12.577400 -3.326440 39.081100 -0.000007 -0.000012 -0.167550 0.257409 33.060700 40.985400 -0.000006 -0.000013 -0.926714 6.149810 -67.498600 11.754300 -0.000000 0.000003 -0.000161 -0.001540 -16.636000 -2.192510 6.469440 -0.000001 174.780000 25.856200 179.644000 -39.081100 -0.002282 -0.040193 -0.200382 0.327656 31.866500 -40.985400 0.000008 0.000006 5.019700 14.140000 -69.371900 -11.754300 -0.000006 -0.000006 -0.002612 -0.036136 -18.042600
0.000000 0.000000 0.000000 0.000000 0.000000 -0.000000 -2.470330 90.635100 -4.267300 88.664700 0.297663 11.710300 15.735700 0.000005 -0.000001 87.667000 76.012400 -87.832200 8.984550 -0.406207 -0.000000 20.187200 -1.130700 -0.130160 16.377300 -0.000001 -0.000001 6.011330 -3.679320 1.654720 6.456720 -0.000001 -0.000000 -10.580000 -3.353500 1.549170 12.994200 -0.242716 4.980390 -91.044900 6.113630 -80.281700 5.348090 -0.000007 -0.000001 -56.764400 34.893000 -30.201200 24.328600 0.000019 0.000005 10.157600 22.809000 -24.804900 22.291600 -0.000001 0.000005 10.563600 5.250430 1.421460 12.994500 -0.242716 -4.980390 89.065100 10.030800 -84.647900 -5.348130 -0.000001 -0.000004 -62.067700 24.913400 -24.475700 -24.328900 0.000322 -0.000009 4.306780 6.708860 -32.813100 -22.291500 -0.000108 -0.000004 20.393200 5.395820 -2.801840 -2.192480 -6.469440 -0.000000 -172.193000 -12.600700 -3.321020 39.081100 -0.000007 -0.000012 -0.172967 0.265671 33.066700 40.985400 -0.000006 -0.000013 -0.926470 6.149340 -67.487700 11.754300 -0.000000 0.000003 -0.000162 -0.001546 -16.636200 -2.192510 6.469440 -0.000001 174.795000 25.849200 179.654000 -39.081100 -0.002282 -0.040193 -0.199886 0.326998 31.855400 -40.985400 0.000008 0.000006 5.018750 14.143000 -69.352200 -11.754300 -0.000006 -0.000006 -0.002439 -0.034077 -17.958800
0.000000 0.000000 0.000000 0.000000 0.000000 -0.000000 -2.455270 90.632400 -4.283180 88.662500 0.246589 11.702000 15.735700 0.000005 -0.000001 87.599500 76.005700 -87.790800 8.984550 -0.406207 -0.000000 20.199000 -1.166240 -0.176246 16.377300 -0.000001 -0.000001 6.151200 -3.668660 1.592410 6.456720 -0.000001 -0.000000 -10.627100 -3.300880 1.460290 12.994200 -0.242716 4.980390 -91.039300 6.081500 -80.283700 5.348090 -0.000007 -0.000001 -56.742000 34.847200 -30.235400 24.328600 0.000019 0.000005 10.137300 22.771500 -24.794200 22.291600 -0.000001 0.000005 10.560400 5.249910 1.435210 12.994500 -0.242716 -4.980390 89.057100 9.953650 -84.560700 -5.348130 -0.000001 -0.000004 -62.125500 24.178400 -24.497900 -24.328900 0.000322 -0.000009 4.689500 6.639290 -35.361000 -22.291500 -0.000108 -0.000004 20.931600 5.399610 -2.924500 -2.192480 -6.469440 -0.000000 -172.200000 -12.651200 -3.339680 39.081100 -0.000007 -0.000012 -0.170716 0.261986 33.089500 40.985400 -0.000006 -0.000013 -0.913955 6.128600 -67.496900 11.754300 -0.000000 0.000003 -0.000159 -0.001527 -16.635500 -2.192510 6.469440 -0.000001 174.789000 25.860300 179.619000 -39.081100 -0.002282 -0.040193 -0.202120 0.330343 31.874900 -40.985400 0.000008 0.000006 5.033630 14.214100 -69.345600 -11.754300 -0.000006 -0.000006 -0.002607 -0.036076 -18.040200
